<svg xmlns="http://www.w3.org/2000/svg" data-name="Layer 1" viewBox="0 0 128 128"><path d="M126 56.084h-7.124a4.014 4.014 0 0 0-2.94 1.286l-10.812 11.714H95v-48a4.004 4.004 0 0 0-4-4l-14.227-.001-9.855-8.959a3.99 3.99 0 0 0-2.691-1.04H23a4.004 4.004 0 0 0-4 4V30.21L6.277 42.024A4.015 4.015 0 0 0 5 44.956v40.127H2a2 2 0 0 0 0 4h3a4.004 4.004 0 0 0 4-4V44.956l12.723-11.814A4.013 4.013 0 0 0 23 30.212V19.083h50l.024-.003 1.058.961a3.989 3.989 0 0 0 2.691 1.041H91v48a4.004 4.004 0 0 0 4 4h10.124a4.013 4.013 0 0 0 2.94-1.287l10.812-11.713H126a2 2 0 0 0 0-4zm-61.773-45 4.4 4H23v-4zM.083 95a2 2 0 0 0 2 2h27.286l9.894 8.094a4.004 4.004 0 0 0 2.534.906h12.55a8 8 0 1 0 0-4h-12.55l-9.895-8.096A4.012 4.012 0 0 0 29.37 93H2.083a2 2 0 0 0-2 2zm62 5a4 4 0 1 1-4 4 4 4 0 0 1 4-4zm8 18a2 2 0 0 0-2-2H40.798l-9.896-8.096A4.012 4.012 0 0 0 28.37 107H15.82a8 8 0 1 0 0 4h12.55l9.893 8.094a4.004 4.004 0 0 0 2.534.906h27.286a2 2 0 0 0 2-2zm-62-5a4 4 0 1 1 4-4 4 4 0 0 1-4 4z"/><path d="M104.083 109a8.007 8.007 0 0 0-7.736 6h-12.55a4.004 4.004 0 0 0-2.532.904L71.369 124H44.083a2 2 0 0 0 0 4h27.286a4.012 4.012 0 0 0 2.533-.904L83.797 119h12.55a7.996 7.996 0 1 0 7.736-10zm0 12a4 4 0 1 1 4-4 4 4 0 0 1-4 4zM2.083 4h67.286l9.894 8.094a4.004 4.004 0 0 0 2.534.906h12.55a8 8 0 1 0 0-4h-12.55L71.903.904A4.012 4.012 0 0 0 69.37 0H2.083a2 2 0 1 0 0 4zm100 3a4 4 0 1 1-4 4 4 4 0 0 1 4-4zm-54 75a8 8 0 1 0 7.737 10h12.55l9.893 8.094a4.004 4.004 0 0 0 2.534.906h27.286a2 2 0 1 0 0-4H80.798l-9.896-8.096A4.012 4.012 0 0 0 68.37 88H55.82a8.007 8.007 0 0 0-7.737-6zm0 12a4 4 0 1 1 4-4 4 4 0 0 1-4 4z"/><path d="M15 46.084a2 2 0 0 0-2 2v37a4.004 4.004 0 0 0 4 4h9.115a4.005 4.005 0 0 0 2.96-1.31l8.81-9.69H79a2 2 0 0 0 0-4H37.885a4.005 4.005 0 0 0-2.96 1.309l-8.81 9.69H17v-37a2 2 0 0 0-2-2zm105 37a8.007 8.007 0 0 0-7.737 6H84.926l-2.809-2.402V83.5a2 2 0 0 0-4 0v4.104a2 2 0 0 0 .7 1.52l3.51 3a4.002 4.002 0 0 0 2.599.96h27.337a7.996 7.996 0 1 0 7.737-10zm0 12a4 4 0 1 1 4-4 4 4 0 0 1-4 4zm-17-72a4.004 4.004 0 0 0-4 4v36a2 2 0 0 0 4 0v-36h9.263a8 8 0 1 0 0-4zm17-2a4 4 0 1 1-4 4 4 4 0 0 1 4-4z"/><path d="M46 62h20a4 4 0 0 0 4-4V38a4 4 0 0 0-4-4H46a4 4 0 0 0-4 4v20a4 4 0 0 0 4 4Zm0-24h20v20H46Z"/><path d="M30 58.084a2 2 0 0 0 0 4h4V64a6.007 6.007 0 0 0 6 6h32a6.007 6.007 0 0 0 6-6v-1.916h4a2 2 0 0 0 0-4h-4v-4h4a2 2 0 0 0 0-4h-4v-4h4a2 2 0 0 0 0-4h-4v-4h4a2 2 0 0 0 0-4h-4V32a6.007 6.007 0 0 0-6-6H40a6.007 6.007 0 0 0-6 6v2.083h-4a2 2 0 0 0 0 4h4v4h-4a2 2 0 0 0 0 4h4v4h-4a2 2 0 0 0 0 4h4v4ZM38 32a2 2 0 0 1 2-2h32a2 2 0 0 1 2 2v32a2 2 0 0 1-2 2H40a2 2 0 0 1-2-2Z"/></svg>